<svg xmlns="http://www.w3.org/2000/svg" version="1.1" xmlns:xlink="http://www.w3.org/1999/xlink" width="512" height="512" x="0" y="0" viewBox="0 0 512 512.001" style="enable-background:new 0 0 512 512" xml:space="preserve" class=""><g><path d="M469.602 213.855c0-64.554-52.223-117.144-116.645-117.738C339.145 40.45 288.539 0 230.004 0c-69.852 0-126.68 56.828-126.68 126.68 0 .601.004 1.203.012 1.808-.59-.011-1.18-.015-1.77-.015C45.562 128.473 0 174.03 0 230.035s45.563 101.567 101.566 101.567h11.395v41.214c-18.066 6.258-31.078 23.434-31.078 43.602 0 25.437 20.695 46.133 46.133 46.133 25.441 0 46.136-20.696 46.136-46.133 0-20.168-13.015-37.344-31.082-43.602v-41.214h76.676v90.664c-18.066 6.257-31.082 23.433-31.082 43.601 0 25.438 20.695 46.133 46.137 46.133 25.437 0 46.133-20.695 46.133-46.133 0-20.168-13.012-37.344-31.079-43.601v-90.664h76.672v41.214c-18.066 6.258-31.078 23.434-31.078 43.602 0 25.437 20.696 46.133 46.133 46.133 25.441 0 46.137-20.696 46.137-46.133 0-20.168-13.016-37.344-31.082-43.602v-41.32c62.718-2.52 112.965-54.316 112.965-117.64ZM128.02 432.445c-8.84 0-16.028-7.191-16.028-16.027 0-8.84 7.188-16.027 16.028-16.027 8.835 0 16.023 7.187 16.023 16.027 0 8.836-7.188 16.027-16.023 16.027Zm106.78 49.446c-8.835 0-16.023-7.188-16.023-16.024 0-8.84 7.188-16.027 16.024-16.027 8.84 0 16.027 7.187 16.027 16.027 0 8.836-7.191 16.024-16.027 16.024Zm106.786-49.446c-8.84 0-16.027-7.191-16.027-16.027 0-8.84 7.187-16.027 16.027-16.027 8.836 0 16.027 7.187 16.027 16.027 0 8.836-7.191 16.027-16.027 16.027Zm0 0" style="stroke:none;fill-rule:nonzero;fill-opacity:1;" fill="#785ee6" data-original="#000000" class="" opacity="1"></path></g></svg>