<svg height="512" viewBox="0 0 512 512" width="512" xmlns="http://www.w3.org/2000/svg"><g id="Layer_2" data-name="Layer 2"><g id="code"><path d="m256 0c-141.38 0-256 114.62-256 256s114.62 256 256 256 256-114.62 256-256-114.62-256-256-256zm-100.18 260.73 33.31 33.27a19.31 19.31 0 0 1 0 27.29 19.31 19.31 0 0 1 -27.29 0l-42.31-42.29a32.54 32.54 0 0 1 0-46l42.31-42.31a19.3 19.3 0 1 1 27.29 27.31l-33.31 33.3a6.69 6.69 0 0 0 0 9.43zm145.18-59.28-57.07 124.24a18.12 18.12 0 0 1 -24 8.9 18.12 18.12 0 0 1 -8.9-24l57.08-124.24a18.12 18.12 0 0 1 24-8.9 18.12 18.12 0 0 1 8.89 24zm91.47 77.55-42.31 42.31a19.31 19.31 0 0 1 -27.29 0 19.31 19.31 0 0 1 0-27.29l33.31-33.3a6.69 6.69 0 0 0 0-9.46l-33.31-33.26a19.3 19.3 0 1 1 27.29-27.29l42.31 42.29a32.54 32.54 0 0 1 0 46z"/></g></g></svg>