<svg xmlns="http://www.w3.org/2000/svg" version="1.1" xmlns:xlink="http://www.w3.org/1999/xlink" width="512" height="512" x="0" y="0" viewBox="0 0 28222 28222" style="enable-background:new 0 0 512 512" xml:space="preserve" fill-rule="evenodd" class=""><g><circle cx="14111" cy="14111" r="14111" fill="#785ee6" opacity="1" data-original="#378b4e" class=""></circle><path fill="#ffffff" d="M17947 12192h-372v2843h579c79-1251 647-1664 1152-2030 534-388 995-722 995-2135 0-1672-1360-3032-3032-3032s-3032 1360-3032 3032c0 1413 461 1747 994 2135 505 367 1073 779 1152 2030h579v-2843h-372c-169 0-306-138-306-307s137-307 306-307h1357c170 0 307 138 307 307s-137 307-307 307zM6040 19502V9612c0-170 137-307 306-307h7631c586-1229 1841-2081 3292-2081 1450 0 2705 852 3292 2081h1315c169 0 307 137 307 307v9890h652c170 0 307 137 307 307v2397c0 169-137 307-307 307H5387c-170 0-307-138-307-307v-2397c0-170 137-307 307-307zm7709-9584H6653v9584h14916V9918h-781c82 304 126 623 126 952 0 1726-663 2207-1247 2631-522 379-901 657-909 1842v1021c0 170-137 307-307 307h-2365c-169 0-307-137-307-307v-1022c0-1181-401-1472-908-1841-585-424-1248-905-1248-2631 0-329 44-648 126-952zM5693 21899h16836v-1784h-5381v892c0 170-137 307-306 307h-5461c-170 0-307-137-307-307v-892H5693zm5994-1199h4848v-585h-4848zm71-3016-163-163-1196 1196c-120 120-314 120-434 0l-790-790c-120-120-120-314 0-434l1196-1196-124-124-2760-1268c-194-89-240-345-89-495l1165-1166-557-558c-120-119-120-314 0-433l941-942c120-120 314-120 434 0l558 558 1165-1166c151-151 407-105 496 89l1268 2760 1511 1511c119 119 119 314 0 434l-2188 2187c-119 119-314 119-433 0zm-1399-2134 1886-1886-1018-2216-3084 3084zm500 368 1115 1115 1754-1753-1116-1116zm-1862-3108 508-508-341-341-508 508zm829 4900 356 356 979-979-356-356zm7443-10768c-170 0-307-137-307-306v-620c0-169 137-306 307-306 169 0 306 137 306 306v620c0 169-137 306-306 306zm2400 644c-233 0-385-254-266-461l310-536c85-146 272-197 419-112s197 272 112 419l-309 536c-57 99-160 154-266 154zm-4800 0c-106 0-209-55-266-154l-310-536c-85-147-34-334 112-419 147-85 335-34 419 112l310 536c119 207-32 461-265 461zm1524 8472h1752v-410h-1752zm2090 1686h-2428c-170 0-307-137-307-306 0-170 137-307 307-307h2428c169 0 307 137 307 307 0 169-138 306-307 306zm-536 1063h-1357c-169 0-306-138-306-307s137-307 306-307h1357c170 0 307 138 307 307s-137 307-307 307z" opacity="1" data-original="#ffffff"></path></g></svg>