<svg xmlns="http://www.w3.org/2000/svg" version="1.1" xmlns:xlink="http://www.w3.org/1999/xlink" width="512" height="512" x="0" y="0" viewBox="0 0 28222 28222" style="enable-background:new 0 0 512 512" xml:space="preserve" fill-rule="evenodd"><g><circle cx="14111" cy="14111" r="14111" fill="#785ee6" opacity="1" data-original="#ff700d"></circle><path fill="#ffffff" d="M19106 9490c-768 0-1392-624-1392-1391s624-1392 1392-1392c767 0 1391 625 1391 1392s-624 1391-1391 1391zm-852 13652H5438c-170 0-307-137-307-307V6012c0-170 137-307 307-307h9682v-318c0-170 137-307 307-307h7357c170 0 307 137 307 307v6992c0 169-137 307-307 307h-4223v10149c0 170-137 307-307 307zM15733 6011v6061h739v-864c0-814 607-1477 1355-1477h575c90 0 175 39 234 108l470 553 469-553c58-69 144-108 234-108h575c748 0 1356 663 1356 1477v864h738V5693h-6745zM5745 22529h12203v-9843h-2521c-166 0-307-133-307-307V6319H5745zm10406-7252H7541c-169 0-306-137-306-307v-1142c0-169 137-306 306-306h8610c169 0 307 137 307 306v1142c0 170-138 307-307 307zm-8303-613h7996v-529H7848zm6700 1843H9145c-170 0-307-137-307-307 0-169 137-306 307-306h5403c169 0 306 137 306 306 0 170-137 307-306 307zm2014 1334H7130c-169 0-307-137-307-306 0-170 138-307 307-307h9432c170 0 307 137 307 307 0 169-137 306-307 306zm0 1335H7130c-169 0-307-138-307-307 0-170 138-307 307-307h9432c170 0 307 137 307 307 0 169-137 307-307 307zm0 1334H7130c-169 0-307-137-307-307 0-169 138-307 307-307h9432c170 0 307 138 307 307 0 170-137 307-307 307zm0 1334H7130c-169 0-307-137-307-307 0-169 138-306 307-306h9432c170 0 307 137 307 306 0 170-137 307-307 307zm-2972-9158H7541c-169 0-306-138-306-307v-1746c0-169 137-306 306-306h6049c169 0 307 137 307 306v1746c0 169-138 307-307 307zm-5742-614h5435v-1132H7848zm1885-2581H7541c-169 0-306-138-306-307V7438c0-169 137-306 306-306h2192c169 0 306 137 306 306v1746c0 169-137 307-306 307zm-1885-614h1578V7745H7848zm5742 614h-2191c-170 0-307-138-307-307V7438c0-169 137-306 307-306h2191c169 0 307 137 307 306v1746c0 169-138 307-307 307zm-1885-614h1578V7745h-1578zm5380 3195h4041v-864c0-476-333-864-742-864h-433l-610 720c-123 144-345 144-468 0l-613-720h-433c-409 0-742 388-742 864zm2021-4751c-429 0-778 349-778 778s349 778 778 778c428 0 777-349 777-778s-349-778-777-778z" opacity="1" data-original="#ffffff"></path></g></svg>