<svg xmlns="http://www.w3.org/2000/svg" version="1.1" xmlns:xlink="http://www.w3.org/1999/xlink" width="512" height="512" x="0" y="0" viewBox="0 0 850 850" style="enable-background:new 0 0 512 512" xml:space="preserve" fill-rule="evenodd"><g><circle cx="425" cy="425" r="425" fill="#785ee6" opacity="1" data-original="#4f576c"></circle><path fill="#ffffff" d="M490 383c-4 0-8-4-8-8s4-7 8-7c35 0 63-29 63-64s-28-63-63-63c-3 0-6-2-7-4-10-24-33-39-58-39s-48 15-58 39c-1 2-4 4-7 4-35 0-63 28-63 63s28 63 63 63c4 0 8 4 8 8s-4 7-8 7c-43 0-77-35-77-78 0-41 32-75 73-77 13-26 40-42 69-42s56 16 69 42c41 3 73 37 73 78 0 43-34 78-77 78zM642 665H208c-22 0-39-17-39-38v-32c0-4 3-7 7-7h498c4 0 7 3 7 7v32c0 21-18 38-39 38zm-458-62v24c0 13 11 24 24 24h434c13 0 24-11 24-24v-24z" opacity="1" data-original="#ffffff"></path><path fill="#ffffff" d="M649 603c-5 0-8-4-8-8V328c0-19-16-35-35-35h-49c-4 0-7-4-7-8s3-7 7-7h49c28 0 50 22 50 50v267c0 4-4 8-7 8zm-448 0c-4 0-7-4-7-8V328c0-27 22-50 49-50h49c4 0 8 4 8 8s-4 7-8 7h-48c-20 0-35 16-35 36v267c0 3-4 7-8 7zM473 634h-95c-4 0-8-3-8-7v-32c0-4 4-7 8-7s7 3 7 7v24h81v-24c0-4 4-7 8-7s7 3 7 7v32c0 4-3 7-8 7zM577 634h-22c-4 0-8-3-8-7s4-8 8-8h22c4 0 8 4 8 8s-4 7-8 7zM622 634h-22c-4 0-8-3-8-7s4-8 8-8h22c4 0 7 4 7 8s-3 7-7 7z" opacity="1" data-original="#ffffff"></path><path fill="#ffffff" d="M618 574H232c-4 0-8-3-8-7V329c0-13 11-23 24-23h42c4 0 8 3 8 8 0 4-4 7-8 7h-42c-5 0-9 4-9 9v230h372V329c0-4-4-8-10-8h-41c-5 0-8-4-8-8s3-7 8-7h42c13 0 24 10 24 23v237c0 5-4 8-8 8z" opacity="1" data-original="#ffffff"></path><path fill="#ffffff" d="M425 432c-4 0-8-3-8-7v-85c0-4 4-8 8-8s7 4 7 8v85c0 4-3 7-7 7zM366 476c-4 0-8-3-8-7v-38c0-2 1-4 2-5l19-24v-62c0-4 3-8 8-8 4 0 7 4 7 8v65c0 2 0 4-2 5l-19 24v35c0 4-4 7-7 7zM484 476c-4 0-7-3-7-7v-36l-19-24c-1-1-2-2-2-4v-65c0-4 4-8 8-8s7 4 7 8v63l20 24c0 1 1 3 1 4v38c0 4-4 7-8 7z" opacity="1" data-original="#ffffff"></path><path fill="#ffffff" d="M366 510c-14 0-24-11-24-24 0-14 10-24 24-24 13 0 24 10 24 24 0 13-11 24-24 24zm0-34c-6 0-10 4-10 10 0 5 4 9 10 9 5 0 9-4 9-9 0-6-4-10-9-10zM484 510c-13 0-24-11-24-24 0-14 11-24 24-24 14 0 24 10 24 24 0 13-10 24-24 24zm0-34c-5 0-9 4-9 10 0 5 4 9 9 9 6 0 10-4 10-9 0-6-4-10-10-10zM425 466c-14 0-24-11-24-24 0-14 10-24 24-24 13 0 24 10 24 24 0 13-11 24-24 24zm0-34c-6 0-10 5-10 10s4 10 10 10c5 0 9-5 9-10s-4-10-9-10z" opacity="1" data-original="#ffffff"></path></g></svg>