<svg xmlns="http://www.w3.org/2000/svg" version="1.1" xmlns:xlink="http://www.w3.org/1999/xlink" width="512" height="512" x="0" y="0" viewBox="0 0 850 850" style="enable-background:new 0 0 512 512" xml:space="preserve" fill-rule="evenodd" class=""><g><circle cx="425" cy="425" r="425" fill="#785ee6" opacity="1" data-original="#663333" class=""></circle><path fill="#ffffff" d="M587 592H263c-4 0-7-3-7-7 0-3 3-7 7-7h324c4 0 7 4 7 7 0 4-3 7-7 7zm0-320H263c-4 0-7-3-7-7s3-7 7-7h324c4 0 7 3 7 7s-3 7-7 7z" opacity="1" data-original="#ffffff" class=""></path><path fill="#ffffff" d="M560 681H290c-19 0-34-16-34-35V204c0-19 15-35 34-35h270c19 0 34 16 34 35v442c0 19-15 35-34 35zM290 183c-11 0-20 9-20 21v442c0 12 9 21 20 21h270c11 0 20-9 20-21V204c0-12-9-21-20-21z" opacity="1" data-original="#ffffff" class=""></path><path fill="#ffffff" d="M440 637h-30c-4 0-7-3-7-7s3-7 7-7h30c4 0 7 3 7 7s-3 7-7 7zM428 227h-44c-4 0-7-3-7-7 0-3 3-7 7-7h44c4 0 7 4 7 7 0 4-3 7-7 7zM466 227h-15c-4 0-7-3-7-7 0-3 3-7 7-7h15c4 0 7 4 7 7 0 4-3 7-7 7zM458 558h-66c-9 0-15-6-15-15v-24c-3-2-6-4-9-5l-21 12c-4 2-8 3-12 2s-7-4-9-7l-33-58c-2-4-3-8-2-12 1-3 4-7 7-9l22-12v-10l-22-12c-3-2-6-5-7-9s0-8 2-12l33-58c2-3 5-5 9-7 4-1 8 0 12 2l21 12c3-2 6-3 8-5v-24c0-9 7-15 15-15h67c8 0 15 6 15 15v24c3 2 6 4 9 5l21-12c3-2 7-3 11-2s8 4 10 7l33 58c2 4 3 8 1 11-1 4-3 8-7 10l-21 12v10l21 12c8 4 10 13 6 21l-34 57c-2 4-5 6-9 7s-8 1-11-1l-22-12c-2 1-5 3-8 4v25c0 9-6 15-15 15zm-90-59c2 0 3 0 5 1 4 3 8 6 14 8 2 1 4 4 4 6v29c0 1 0 1 1 1h66c1 0 1 0 1-1v-29c0-2 2-5 4-6 6-2 10-5 14-8 3-2 6-2 8-1l25 15h2l33-58v-2l-26-14c-2-1-3-4-3-7v-16c0-3 1-5 3-7l26-14v-2l-34-58h-1l-25 15c-2 1-5 1-8-1-4-3-9-6-14-8-2-1-4-3-4-6v-29c0-1 0-1-1-1h-66c-1 0-1 0-1 1v29c0 3-2 5-4 6-5 2-10 5-14 8-3 2-6 2-8 0l-25-14h-2l-33 58v2l25 14c3 2 4 4 4 7v16c0 3-1 5-4 7l-25 14v2l33 58h2l25-15z" opacity="1" data-original="#ffffff" class=""></path><path fill="#ffffff" d="M425 501c-42 0-76-34-76-76s34-76 76-76 75 34 75 76-33 76-75 76zm0-138c-34 0-62 28-62 62s28 62 62 62 61-28 61-62-27-62-61-62z" opacity="1" data-original="#ffffff" class=""></path><path fill="#ffffff" d="M404 457c-1 0-3-1-5-2l-24-25c-2-1-2-3-2-5s0-4 2-5l24-25c3-2 8-2 10 0 3 3 3 7 0 10l-20 20 20 20c3 3 3 7 0 10-1 1-3 2-5 2zM446 457c-2 0-4-1-5-2-3-3-3-7 0-10l20-20-20-20c-3-3-3-7 0-10 2-2 7-2 10 0l24 25c2 1 2 3 2 5s0 4-2 5l-24 25c-2 1-4 2-5 2zM419 463h-1c-4-1-7-5-6-8l12-62c1-4 4-6 8-6 4 1 6 5 6 9l-12 61c-1 4-4 6-7 6z" opacity="1" data-original="#ffffff" class=""></path></g></svg>