<svg xmlns="http://www.w3.org/2000/svg" version="1.1" xmlns:xlink="http://www.w3.org/1999/xlink" width="512" height="512" x="0" y="0" viewBox="0 0 6773 6773" style="enable-background:new 0 0 512 512" xml:space="preserve" fill-rule="evenodd" class=""><g><circle cx="3387" cy="3387" r="3387" fill="#785ee6" opacity="1" data-original="#e2a0b6" class=""></circle><path fill="#ffffff" d="M5214 4113c-11 0-22-4-30-10l-1-1c-8-7-14-15-17-26-5-15-2-30 5-42-14-176-12-633-5-655 8-27 36-43 63-34l289 87c21 7 37 26 37 48v493c0 22-15 42-37 48l-289 87c-6 5-11 5-15 5z" opacity="1" data-original="#da4a54" class=""></path><path fill="#ffffff" d="M3216 5207h-659c-376 0-682-305-682-681v-136c0-28 23-50 51-50s51 22 51 50v136c0 320 259 580 580 580h659c28 0 51 23 51 51s-23 50-51 50z" opacity="1" data-original="#ddd9d9" class=""></path><path fill="#ffffff" d="M1558 4113c-5 0-10-1-14-3l-289-87c-21-7-36-26-36-48v-493c0-22 14-42 36-48l289-88c27-8 55 7 63 34 7 21 12 454 2 676 1 5 1 10 0 15-3 67-8 112-14 114l-30-73c-2 1-5 1-7 1z" opacity="1" data-original="#da4a54" class=""></path><path fill="#ffffff" d="M1773 3117c-27 0-50-22-50-49-1-15-1-31-1-47 0-917 746-1663 1663-1663 918 0 1664 746 1664 1663 0 16 0 32-1 47-1 28-24 50-52 49-26-1-47-21-49-47-86-4-194-11-194-2-1 28-25 50-53 49s-50-25-49-52c1-15 1-29 1-44 0-698-568-1266-1267-1266-698 0-1266 568-1266 1266 0 15 0 29 1 44 0 27-22 51-49 52h-2c-27 0-50-22-51-49-1-15-242 65-242 50-2-1-2-1-3-1z" opacity="1" data-original="#8399b0" class=""></path><path fill="#ffffff" d="M2154 4441h-458c-104 0-188-84-188-188V3203c0-104 85-188 188-188h458c104 0 188 85 188 188v1049c0 105-84 189-188 189zm2922 0h-458c-104 0-188-84-188-188V3203c0-104 85-188 188-188h458c104 0 188 85 188 188v1049c1 105-84 189-188 189z" opacity="1" data-original="#3d5466" class=""></path><path fill="#ffffff" d="M3813 5416h-537c-61 0-111-50-111-111v-286c0-61 50-110 111-110h537c61 0 111 49 111 110v286c-1 61-50 111-111 111z" opacity="1" data-original="#da4a54" class=""></path></g></svg>