<svg xmlns="http://www.w3.org/2000/svg" version="1.1" xmlns:xlink="http://www.w3.org/1999/xlink" width="512" height="512" x="0" y="0" viewBox="0 0 512 512" style="enable-background:new 0 0 512 512" xml:space="preserve" class=""><g><path d="M399.625 210.749c-8.34 0-15.125 6.785-15.125 15.125v60.253c0 8.34 6.785 15.125 15.125 15.125s15.125-6.785 15.125-15.125v-60.253c0-8.34-6.785-15.125-15.125-15.125z" fill="#785ee6" opacity="1" data-original="#000000" class=""></path><path d="M256 0C114.615 0 0 114.615 0 256s114.615 256 256 256 256-114.615 256-256S397.385 0 256 0zm-45.125 60.25h90.25v30h-90.25zm-60.25 60.25h210.75v30h-210.75zm138.5 180.751c8.34 0 15.125-6.785 15.125-15.125V271h-15.125v-30h45.125v45.126c0 24.882-20.243 45.125-45.125 45.125S244 311.008 244 286.126v-60.253c0-24.882 20.243-45.125 45.125-45.125s45.125 20.243 45.125 45.125h-30c0-8.34-6.785-15.125-15.125-15.125S274 217.534 274 225.874v60.253c0 8.339 6.785 15.124 15.125 15.124zm-161.75 30H67.25v-150.5h30v120.5h30.125zm6.125-45.125v-60.253c0-24.882 20.243-45.125 45.125-45.125s45.125 20.243 45.125 45.125v60.253c0 24.882-20.243 45.125-45.125 45.125S133.5 311.008 133.5 286.126zM301.125 451.75h-90.25v-30h90.25zm60.25-60.253h-210.75v-30h210.75zm38.25-60.246c-24.882 0-45.125-20.243-45.125-45.125v-60.253c0-24.882 20.243-45.125 45.125-45.125s45.125 20.243 45.125 45.125v60.253c0 24.882-20.243 45.125-45.125 45.125z" fill="#785ee6" opacity="1" data-original="#000000" class=""></path><path d="M193.75 286.126v-60.253c0-8.34-6.785-15.125-15.125-15.125s-15.125 6.785-15.125 15.125v60.253c0 8.34 6.785 15.125 15.125 15.125s15.125-6.785 15.125-15.125z" fill="#785ee6" opacity="1" data-original="#000000" class=""></path></g></svg>