<svg id="Layer_1" enable-background="new 0 0 66 66" height="512" viewBox="0 0 66 66" width="512" xmlns="http://www.w3.org/2000/svg"><g><g><path d="m53.27 3.87h-34.6c-1.46 0-2.66 1.19-2.66 2.66v2.56h39.9v-2.57c0-1.46-1.18-2.65-2.64-2.65zm-13.74 3.61h-7.14c-.55 0-1-.45-1-1s.45-1 1-1h7.14c.55 0 1 .45 1 1s-.45 1-1 1zm-7.37 9.81h23.75v-6.2h-39.9v23.48h1.66c.13 0 .25.02.36.07.33.12.58.42.64.79l.2 1.42.1.68c.41.14.81.32 1.21.5.18.09.36.17.54.27l1.7-1.14c.4-.27.94-.22 1.28.14l1.46 1.53 2.05 2.15c.26.27.34.64.24.97-.03.12-.08.23-.16.32l-.73.99-.47.64c.08.17.14.34.21.51.07.15.14.31.2.47.1.27.2.54.28.81l.86.18 1.13.23c.47.09.8.5.8.96v.04l-.12 5.09c-.01.25-.1.47-.25.64s-.36.3-.6.33l-2.02.32c-.17.49-.38.97-.62 1.43h29.95v-8.82h-11.89l-5.03 4.44c-.03.04-.07.05-.11.08-.09.07-.19.13-.29.18-.05.03-.09.06-.15.08-.13.06-.27.1-.42.12-.04.01-.09.01-.13.02-.06 0-.12.01-.19.01-.04 0-.09-.01-.14-.01-.07-.01-.13-.01-.2-.02-.13-.03-.27-.07-.4-.12-.02-.01-.05-.01-.07-.02-.7-.32-1.14-1-1.14-1.77v-2.99h-3.58c-.2 0-.39-.02-.58-.06-1.32-.27-2.31-1.43-2.31-2.83v-23.03c0-1.59 1.29-2.88 2.88-2.88zm-17.38 27.23c-2.65 0-4.81 2.17-4.81 4.83s2.16 4.82 4.81 4.82c2.66 0 4.82-2.16 4.82-4.82s-2.16-4.83-4.82-4.83zm0 0c-2.65 0-4.81 2.17-4.81 4.83s2.16 4.82 4.81 4.82c2.66 0 4.82-2.16 4.82-4.82s-2.16-4.83-4.82-4.83zm12.42 3.3-1.42-.29c-.38-.07-.68-.36-.77-.73-.11-.45-.25-.89-.41-1.3-.03-.06-.06-.12-.08-.18-.15-.35-.3-.7-.48-1.03-.1-.17-.14-.37-.12-.55 0-.08.02-.16.04-.23.01-.02.01-.03.01-.04.04-.1.08-.18.14-.26l.8-1.08.27-.37-1.37-1.45-.98-1.02-1.49 1-.02.01c-.07.05-.15.09-.23.11-.01.01-.01.01-.02.01-.27.09-.57.06-.83-.09-.32-.2-.65-.36-.99-.52-.48-.22-.96-.41-1.46-.56-.07-.03-.14-.06-.2-.1-.02-.01-.04-.01-.06-.02-.24-.16-.41-.41-.45-.7l-.13-.91-.14-.95h-3.42l-.36 1.8c-.08.37-.35.67-.72.76l-.11.04c-.91.24-1.69.55-2.42.95-.34.19-.76.16-1.07-.07l-1.46-1.07-2.48 2.37 1 1.51c.22.32.22.75.02 1.08-.18.28-.35.59-.53.97-.22.47-.4.96-.55 1.48-.11.37-.43.64-.81.7l-1.8.28-.09 3.42 1.78.35c.38.08.69.37.78.75.2.85.52 1.7.96 2.51.18.34.15.75-.08 1.06l-1.08 1.47 2.36 2.47 1.52-1.02c.32-.22.75-.23 1.08-.03.78.48 1.6.84 2.44 1.09.38.1.66.42.72.81l.27 1.88h3.41l.37-1.81c.07-.38.36-.69.74-.78.87-.21 1.71-.53 2.51-.97.34-.19.76-.16 1.07.07l1.45 1.07 2.49-2.37-.53-.8-.48-.71c-.22-.33-.22-.75-.01-1.09.1-.16.17-.34.26-.5.28-.52.52-1.06.7-1.63.04-.1.08-.2.12-.3.08-.28.27-.51.53-.63h.02c.08-.04.16-.07.25-.08l1.81-.29.08-3.42zm-12.42 8.35c-3.76 0-6.81-3.06-6.81-6.82 0-3.77 3.05-6.83 6.81-6.83s6.82 3.06 6.82 6.83c0 3.76-3.06 6.82-6.82 6.82zm0-11.65c-2.65 0-4.81 2.17-4.81 4.83s2.16 4.82 4.81 4.82c2.66 0 4.82-2.16 4.82-4.82s-2.16-4.83-4.82-4.83zm0 0c-2.65 0-4.81 2.17-4.81 4.83s2.16 4.82 4.81 4.82c2.66 0 4.82-2.16 4.82-4.82s-2.16-4.83-4.82-4.83zm0 0c-2.65 0-4.81 2.17-4.81 4.83s2.16 4.82 4.81 4.82c2.66 0 4.82-2.16 4.82-4.82s-2.16-4.83-4.82-4.83zm12.14 12.39.01.01c.27.41.21.95-.14 1.28l-1.56 1.48-2.14 2.05c-.35.34-.89.37-1.28.08l-.24-.17c-.04-.02-.08-.05-.1-.07l-1.3-.95c-.59.28-1.19.52-1.79.7l-.16.81h35.04c1.46 0 2.65-1.19 2.65-2.66v-2.56zm12.61 3.69h-7.14c-.55 0-1-.45-1-1 0-.56.45-1 1-1h7.14c.55 0 1 .44 1 1 0 .55-.45 1-1 1zm23.58-41.31h-6.16c-.01 0-.03.01-.04.01h-24.74c-.49 0-.89.39-.89.87v23.03c0 .15.05.28.11.4.15.29.43.49.77.49h4.6c.55 0 1 .45 1 1v3.86l5.22-4.61c.18-.16.41-.25.66-.25h19.47c.48 0 .88-.4.88-.89v-23.03c0-.48-.4-.88-.88-.88zm-19.91 17.28c-.26 0-.51-.1-.71-.29l-3.67-3.67c-.19-.19-.29-.44-.29-.71 0-.26.1-.52.29-.7l3.67-3.68c.39-.39 1.03-.39 1.42 0 .39.4.39 1.03 0 1.42l-2.97 2.96 2.97 2.96c.39.39.39 1.03 0 1.42-.2.19-.45.29-.71.29zm1.95 5.29c-.09 0-.18-.01-.27-.04-.54-.14-.85-.7-.7-1.23l4.98-17.92c.15-.53.71-.84 1.24-.69.53.14.84.7.69 1.23l-4.98 17.92c-.12.44-.53.73-.96.73zm11.3-9.25-3.67 3.67c-.2.19-.45.29-.71.29-.25 0-.51-.1-.71-.29-.39-.39-.39-1.03.01-1.42l2.96-2.96-2.96-2.96c-.4-.39-.4-1.02 0-1.42.39-.39 1.02-.39 1.41 0l3.67 3.68c.19.18.29.44.29.7 0 .27-.1.52-.29.71z"/></g></g></svg>