<svg xmlns="http://www.w3.org/2000/svg" version="1.1" xmlns:xlink="http://www.w3.org/1999/xlink" width="512" height="512" x="0" y="0" viewBox="0 0 2667 2667" style="enable-background:new 0 0 512 512" xml:space="preserve" fill-rule="evenodd" class=""><g><circle cx="1333" cy="1333" r="1333" fill="#785ee6" opacity="1" data-original="#378b4e" class=""></circle><path fill="#ffffff" d="M1701 1116c-10 0-19-7-22-17l-97-361c-3-12 4-24 16-28 13-3 25 4 28 16l97 361c3 12-4 25-16 28-2 1-4 1-6 1zm-594 1025 88-277H546c-37 0-66-24-66-54V853c0-31 29-54 66-54h683l40-11h1c246-66 339-291 340-294 4-9 13-14 23-14 10 1 18 8 20 17l81 302h387c37 0 66 23 66 54v957c0 30-29 54-66 54h-649l88 277h102c12 0 23 10 23 23 0 12-11 23-23 23h-657c-13 0-23-11-23-23 0-13 10-23 23-23zm118-323h896c13 0 20-6 20-8v-117H526v117c0 2 7 8 20 8zm287 323-88-277h-182l-87 277zM1239 843c-1 0-1 1-2 1l-253 67c-17 5-31 16-40 32-9 15-12 33-7 50l55 208c8 29 35 49 65 49 6 0 12 0 17-2l275-74-90-336zm-179 1H546c-13 0-20 7-20 9v795h1615V853c0-2-7-9-20-9h-375l115 428c3 10-1 20-9 25-4 3-8 4-13 4s-10-2-14-5c-2-1-195-150-442-84l-1 1-106 28 143 247c3 5 4 12 2 17-2 6-5 11-11 14l-117 68c-4 2-8 3-12 3-7 0-15-4-19-11l-167-289-9 2c-9 2-19 4-29 4-50 0-95-34-108-83l-71 19c-2 1-4 1-6 1-10 0-19-6-22-17l-44-165c-2-6-1-12 2-17s8-9 14-11l71-19c-8-28-3-58 11-84 15-26 40-45 69-52zm243-18 90 337c183-41 334 22 409 64l-177-661c-44 74-143 204-322 260zm-163 451 150 259 78-45-137-238zm-134-265c-10 0-19-7-21-17-4-12 3-25 16-28l207-56c12-3 24 4 28 16 3 13-4 25-16 28l-208 56c-2 0-4 1-6 1zm25 90c-10 0-20-7-22-17-3-12 4-24 16-28l207-55c12-3 25 4 28 16s-4 25-16 28l-207 55c-2 1-4 1-6 1zm24 91c-10 0-19-7-22-17-3-12 4-25 16-28l207-56c13-3 25 4 28 16 3 13-4 25-16 28l-207 56c-2 0-4 1-6 1zm-200-132 33 122 49-13-32-122z" opacity="1" data-original="#ffffff" class=""></path></g></svg>