<svg xmlns="http://www.w3.org/2000/svg" version="1.1" xmlns:xlink="http://www.w3.org/1999/xlink" width="512" height="512" x="0" y="0" viewBox="0 0 28222 28222" style="enable-background:new 0 0 512 512" xml:space="preserve" fill-rule="evenodd" class=""><g><circle cx="14111" cy="14111" r="14111" fill="#785ee6" opacity="1" data-original="#00ab94" class=""></circle><path fill="#ffffff" d="M11928 15435c-1008 0-1827-820-1827-1827 0-1008 819-1828 1827-1828s1827 820 1827 1828c0 1007-819 1827-1827 1827zm10582 7134c-89 0-176-39-235-110l-992-1183c-31-38-53-83-64-131l-1633-7390-9-72v-1133l3-42 273-2189c-193-124-347-282-449-469-195-357-297-988 326-1960 370-577 257-1530 181-1855-30-120 13-246 116-322 67-49 144-67 225-56 990 112 2159 1289 2632 2323 414 904 351 1753-356 2240 31 244 289 2269 289 2330v9712c0 170-139 307-307 307zm-708-1630 401 480v-7430h-1937zm-1571-8696h1932l-218-1745c-463 147-1024 179-1504 64zm-40 1133h2012v-520h-2012zm479-3392c456 84 1005 8 1386-194 144-77 257-164 333-274 275-395 78-972-63-1281-284-621-814-1233-1338-1607 338 643 669 1544 441 2329-48 165-220 256-380 209-163-47-257-217-209-380 139-479-25-1076-259-1594-38 348-133 714-335 1029-365 569-470 1031-303 1335 116 214 384 364 727 428zm-8626 11088c-3839 0-6961-3122-6961-6961 0-4082 3510-7300 7593-6932 138 12 251 116 275 253 484 2830 2819 4986 5679 5244 138 12 251 117 275 254 727 4251-2551 8142-6861 8142zm0-13309c-3500 0-6348 2848-6348 6348s2848 6348 6348 6348c3835 0 6801-3388 6291-7198-2947-368-5343-2580-5944-5488-117-6-233-10-347-10zm4067 8859c-872 0-1581-709-1581-1581 0-871 709-1580 1581-1580 871 0 1580 709 1580 1580 0 872-709 1581-1580 1581zm0-2548c-534 0-968 434-968 967 0 534 434 967 968 967 533 0 967-433 967-967 0-533-434-967-967-967zm-2692 5377c-871 0-1580-709-1580-1580 0-872 709-1581 1580-1581 872 0 1581 709 1581 1581 0 871-709 1580-1581 1580zm0-2547c-533 0-967 433-967 967 0 533 434 967 967 967s967-434 967-967c0-534-434-967-967-967zm-3772 1752c-872 0-1581-709-1581-1580 0-872 709-1581 1581-1581 871 0 1580 709 1580 1581 0 871-709 1580-1580 1580zm0-2547c-534 0-967 434-967 967s433 967 967 967c533 0 967-434 967-967s-434-967-967-967zm-1929-738c-871 0-1580-709-1580-1580s709-1581 1580-1581c872 0 1581 710 1581 1581 0 872-709 1580-1581 1580zm0-2547c-533 0-967 434-967 967s434 967 967 967 967-434 967-967-434-967-967-967zm2086-803c-872 0-1581-709-1581-1581 0-871 709-1580 1581-1580 871 0 1580 709 1580 1580 0 872-709 1581-1580 1581zm0-2548c-534 0-967 434-967 967 0 534 433 968 967 968 533 0 967-434 967-968 0-533-434-967-967-967zm2124 2921c-669 0-1214 544-1214 1214 0 669 545 1214 1214 1214s1214-545 1214-1214c0-670-545-1214-1214-1214z" opacity="1" data-original="#ffffff"></path></g></svg>