<svg xmlns="http://www.w3.org/2000/svg" version="1.1" xmlns:xlink="http://www.w3.org/1999/xlink" width="512" height="512" x="0" y="0" viewBox="0 0 6773 6773" style="enable-background:new 0 0 512 512" xml:space="preserve" fill-rule="evenodd" class=""><g><circle cx="3387" cy="3387" r="3387" fill="#785ee6" opacity="1" data-original="#1d81ce"></circle><path fill="#ffffff" d="M3183 4270H2080c-76 0-76-115 0-115h1062c19-54 124-383 145-403l1090-1091c22-22 59-22 81 0l276 276c23 23 23 60 0 82L3644 4109c-22 23-378 135-439 157zm1961 1283H1630c-32 0-58-26-58-57V1278c0-32 26-58 58-58h3514c31 0 57 26 57 58v4218c0 31-26 57-57 57zm-3457-115h3399v-322H1687zm3399-437V1914H1687v3087zm0-3203v-463H1687v463zm-1921-173h-289c-76 0-76-116 0-116h289c76 0 76 116 0 116zm732 0h-462c-76 0-76-116 0-116h462c76 0 76 116 0 116zm-519 2199-102 296 296-102 797-796-195-195zm878-879 194 195 162-162-194-194zm-1073 650H2080c-76 0-76-115 0-115h1103c76 0 76 115 0 115zm-217 338h-886c-76 0-76-116 0-116h886c76 0 76 116 0 116z" opacity="1" data-original="#ffffff" class=""></path></g></svg>