<svg xmlns="http://www.w3.org/2000/svg" version="1.1" xmlns:xlink="http://www.w3.org/1999/xlink" width="512" height="512" x="0" y="0" viewBox="0 0 850 850" style="enable-background:new 0 0 512 512" xml:space="preserve" fill-rule="evenodd" class=""><g><circle cx="425" cy="425" r="425" fill="#785ee6" opacity="1" data-original="#ffbe00"></circle><path fill="#ffffff" d="M466 516h-82c-9 0-17-7-17-16v-32l-12-6-27 15c-4 3-8 3-12 2-5-1-8-4-11-8l-41-71c-2-4-3-8-1-13 1-4 4-8 8-10l27-15c0-2-1-5-1-7s1-5 1-7l-27-16c-4-2-7-5-8-10-1-4-1-9 1-13l41-71c5-8 15-10 23-6l27 16c4-3 8-5 12-7v-31c0-9 8-17 17-17h82c9 0 17 8 17 17v31c4 2 8 5 12 7l27-16c3-2 8-2 12-1 5 1 8 4 11 8l41 70c4 9 1 19-7 23l-27 16v13l27 16c8 5 11 15 6 23l-41 71c-2 4-5 7-10 8-4 1-9 0-13-2l-27-16c-3 3-7 5-11 7v32c0 9-8 16-17 16zm-110-70c1 0 3 1 4 2 5 3 11 7 17 10 3 1 4 3 4 6v36c0 1 2 3 3 3h82c2 0 3-2 3-3v-36c0-3 1-5 4-6 6-3 12-7 17-10 2-2 5-2 8-1l31 18c0 1 1 1 2 0 0 0 1 0 1-1l41-71c1-1 1-3-1-4l-30-18c-3-1-4-3-4-6v-20c0-3 1-6 4-7l30-18c2-1 2-2 1-4l-41-71c0-1-1-1-1-1h-2l-31 18c-3 2-5 1-8 0-5-4-11-7-17-10-3-1-4-4-4-7v-35c0-2-1-3-3-3h-82c-1 0-3 1-3 3v35c0 3-1 6-4 7-6 3-12 6-17 10-2 2-5 2-8 0l-31-18c-1 0-3 0-3 2l-41 70c-1 1-1 2-1 3 0 0 1 1 2 1l31 18c2 1 3 4 3 7v20c0 3-1 5-3 7l-31 17-2 2c0 1 0 1 1 2l41 71c0 1 1 1 1 2 1 0 2 0 2-1l31-18c1 0 2-1 4-1z" opacity="1" data-original="#ffffff" class=""></path><path fill="#ffffff" d="M425 436c-45 0-82-36-82-81s37-82 82-82 81 37 81 82-36 81-81 81zm0-149c-37 0-68 31-68 68s31 67 68 67 67-30 67-67c0-38-30-68-67-68zM640 579c-4 0-7-3-7-7V322c0-8-7-16-15-16h-46c-4 0-7-3-7-7s3-7 7-7h46c16 0 29 14 29 30v250c0 4-4 7-7 7zm-430 0c-4 0-7-3-7-7V322c0-16 13-30 29-30h46c4 0 7 3 7 7s-3 7-7 7h-46c-8 0-15 8-15 16v250c0 4-3 7-7 7z" opacity="1" data-original="#ffffff" class=""></path><path fill="#ffffff" d="M571 657H279c-41 0-64-5-81-15-20-13-29-36-29-70 0-4 3-7 7-7h177c4 0 7 3 7 7 0 21 6 23 23 23h84c17 0 23-2 23-23 0-4 3-7 7-7h177c4 0 7 3 7 7 0 34-9 57-29 70-17 10-40 15-81 15zm-388-78c1 25 8 41 23 51 14 9 36 13 73 13h292c64 0 93-10 96-64H504c-2 25-16 30-37 30h-85c-20 0-34-5-36-30z" opacity="1" data-original="#ffffff" class=""></path><path fill="#ffffff" d="M497 579H352c-3 0-7-3-7-7s4-7 7-7h145c4 0 7 3 7 7s-3 7-7 7z" opacity="1" data-original="#ffffff" class=""></path></g></svg>