<svg xmlns="http://www.w3.org/2000/svg" version="1.1" xmlns:xlink="http://www.w3.org/1999/xlink" width="512" height="512" x="0" y="0" viewBox="0 0 2667 2667" style="enable-background:new 0 0 512 512" xml:space="preserve" fill-rule="evenodd" class=""><g><circle cx="1333" cy="1333" r="1333" fill="#785ee6" opacity="1" data-original="#1d81ce"></circle><path fill="#ffffff" d="M1763 1710c-21 0-40-18-40-40v-277c0-31 34-49 60-34l240 140c27 15 27 53 0 69l-240 137c-6 3-13 5-20 5zm-16 267H597c-66 0-117-52-117-117V807c0-66 51-117 117-117h1283c66 0 120 52 120 117v280h20c92 0 167 74 167 166v557c0 92-75 167-167 167zm173-890v-10H560v783c0 21 15 37 37 37h1007c-15-26-24-55-24-87v-557c0-92 75-166 167-166zm0-90V807c0-21-18-37-40-37H597c-22 0-37 15-37 37v190zM773 983H673c-39 0-73-32-73-70v-60c0-40 33-73 73-73h100c41 0 74 33 74 73v60c0 38-34 70-74 70zm-93-80h87v-43h-87zm350 80H930c-39 0-70-31-70-70v-60c0-41 31-73 70-73h100c42 0 73 32 73 73v60c0 40-32 70-73 70zm-90-80h83v-43h-83zm350 80h-100c-41 0-73-30-73-70v-60c0-41 31-73 73-73h100c39 0 70 32 70 73v60c0 39-31 70-70 70zm-93-80h83v-43h-83zm550 264c-48 0-87 39-87 86v557c0 48 39 87 87 87h273c48 0 87-39 87-87v-557c0-47-39-86-87-86zm-317 686H700c-22 0-40-18-40-40v-656c0-22 18-40 40-40h730c22 0 40 18 40 40v656c0 22-18 40-40 40zm-690-80h650v-576H740zm1197-503h-107c-53 0-53-80 0-80h107c52 0 52 80 0 80zm-37 603h-33c-53 0-53-80 0-80h33c53 0 53 80 0 80zm-977-183c-21 0-40-18-40-40v-327c0-31 35-49 61-34l279 163c27 15 27 54 0 69l-279 163c-7 4-14 6-21 6zm40-296v186l160-93zm840 69v139l121-69z" opacity="1" data-original="#ffffff"></path></g></svg>