<svg id="Layer_1" height="512" viewBox="0 0 512 512" width="512" xmlns="http://www.w3.org/2000/svg" data-name="Layer 1"><path d="m455.226 42.325h-398.452a56.842 56.842 0 0 0 -56.774 56.775v74.323h512v-74.323a56.851 56.851 0 0 0 -56.774-56.773zm-455.226 157.937v212.638a56.842 56.842 0 0 0 56.774 56.774h398.452a56.852 56.852 0 0 0 56.774-56.774v-212.638zm375.216 87.364-33.916 33.922 33.913 33.922a13.417 13.417 0 1 1 -18.97 18.98l-33.922-33.922-33.931 33.921a13.42 13.42 0 1 1 -18.981-18.977l33.933-33.924-33.933-33.924a13.42 13.42 0 1 1 18.981-18.977l33.931 33.921 33.922-33.922a13.417 13.417 0 1 1 18.97 18.98zm-140.277-9.538v49.279a51.048 51.048 0 1 1 -102.095 0v-49.279a13.417 13.417 0 1 1 26.834 0v49.279a24.21 24.21 0 0 0 48.42 0v-49.279a13.421 13.421 0 0 1 26.841 0zm50.861-156.798a13.415 13.415 0 0 1 13.417-13.417h131.148a13.421 13.421 0 0 1 0 26.841h-131.148a13.417 13.417 0 0 1 -13.417-13.424zm-217.575 0a13.4 13.4 0 0 1 13.41-13.417h.015a13.421 13.421 0 1 1 -13.425 13.417zm58.093 0a13.4 13.4 0 0 1 13.409-13.417h.022a13.421 13.421 0 1 1 -13.431 13.417zm58.084 0a13.414 13.414 0 0 1 13.41-13.417h.029a13.421 13.421 0 1 1 -13.441 13.417z" fill-rule="evenodd"/></svg>