<svg enable-background="new 0 0 470 390" height="512" viewBox="0 0 470 390" width="512" xmlns="http://www.w3.org/2000/svg"><g id="Layer_18_x2C__laptop_x2C__coding_x2C__web_x2C__seo"><g><path d="m320 340v15c0 2.762-2.238 5-5 5h-160c-2.761 0-5-2.238-5-5v-15h-150v50h470v-50z"/><path d="m160 335v15h150v-15c0-2.762 2.238-5 5-5h125v-330h-410v330h125c2.761 0 5 2.238 5 5zm-100-40v-260c0-2.761 2.239-5 5-5h340c2.762 0 5 2.239 5 5v260c0 2.762-2.238 5-5 5h-340c-2.761 0-5-2.238-5-5z"/><path d="m70 290h330v-250h-330zm221.465-161.464c-1.953-1.953-1.953-5.119 0-7.071 1.951-1.952 5.119-1.952 7.07 0l40 40c1.953 1.953 1.953 5.119 0 7.071l-40 40c-.975.976-2.256 1.464-3.535 1.464s-2.56-.488-3.535-1.465c-1.953-1.952-1.953-5.118 0-7.07l36.464-36.465zm-81.273 105.09 40-140c.76-2.656 3.524-4.191 6.182-3.434 2.654.759 4.192 3.526 3.434 6.181l-40 140c-.627 2.195-2.629 3.627-4.805 3.627-.455 0-.917-.063-1.376-.193-2.656-.758-4.193-3.526-3.435-6.181zm-78.728-72.162 40-40c1.953-1.952 5.118-1.952 7.071 0 1.953 1.953 1.953 5.119 0 7.071l-36.464 36.465 36.464 36.465c1.953 1.952 1.953 5.118 0 7.07-.976.977-2.255 1.465-3.535 1.465s-2.559-.488-3.536-1.465l-40-40c-1.952-1.952-1.952-5.118 0-7.071z"/></g></g></svg>